<svg width="48" height="48" viewBox="0 0 48 48" fill="none" xmlns="http://www.w3.org/2000/svg">
<circle cx="24" cy="24" r="24" fill="#E8312B"/>
<g clip-path="url(#clip0_17_198)">
<path d="M24 20.7906C22.2303 20.7906 20.7906 22.2304 20.7906 24C20.7906 25.7696 22.2303 27.2094 24 27.2094C25.7696 27.2094 27.2093 25.7696 27.2093 24C27.2093 22.2304 25.7696 20.7906 24 20.7906ZM24 25.686C23.0703 25.686 22.314 24.9296 22.314 24C22.314 23.0704 23.0704 22.3141 24 22.3141C24.9296 22.3141 25.6859 23.0704 25.6859 24C25.6859 24.9296 24.9296 25.686 24 25.686Z" fill="white"/>
<path d="M18.1955 18.1955L17.1183 17.1183C15.2774 18.9592 14.2636 21.4032 14.2636 24.0001C14.2636 26.5969 15.2774 29.0409 17.1183 30.8818L18.1956 29.8046C16.6424 28.2514 15.787 26.19 15.787 24.0001C15.787 21.8101 16.6424 19.7487 18.1955 18.1955Z" fill="white"/>
<path d="M15.8889 15.8888L14.8117 14.8116C12.3537 17.2696 11 20.5328 11 24C11 27.4671 12.3537 30.7303 14.8117 33.1883L15.8889 32.111C13.7187 29.9408 12.5234 27.0602 12.5234 24C12.5234 20.9397 13.7187 18.0591 15.8889 15.8888Z" fill="white"/>
<path d="M33.1882 14.8116L32.111 15.8889C34.2813 18.0591 35.4765 20.9397 35.4765 24C35.4765 27.0602 34.2813 29.9408 32.1111 32.1111L33.1883 33.1883C35.6463 30.7303 36.9999 27.4671 36.9999 24C36.9999 20.5328 35.6463 17.2696 33.1882 14.8116Z" fill="white"/>
<path d="M30.8818 17.1183L29.8046 18.1955C31.3577 19.7487 32.213 21.8101 32.213 24.0001C32.213 26.19 31.3577 28.2514 29.8045 29.8046L30.8817 30.8818C32.7226 29.0409 33.7365 26.5969 33.7365 24.0001C33.7365 21.4032 32.7227 18.9592 30.8818 17.1183Z" fill="white"/>
<path d="M28.5751 19.4247L27.4979 20.5019C28.434 21.438 28.9494 22.6802 28.9494 23.9998C28.9494 25.3194 28.434 26.5617 27.4979 27.4977L28.5751 28.575C29.7989 27.3511 30.4729 25.7263 30.4729 23.9998C30.4729 22.2733 29.799 20.6485 28.5751 19.4247Z" fill="white"/>
<path d="M20.5021 20.5019L19.4249 19.4247C18.2011 20.6485 17.5271 22.2733 17.5271 23.9998C17.5271 25.7263 18.2011 27.3512 19.4248 28.575L20.5021 27.4977C19.566 26.5616 19.0505 25.3194 19.0505 23.9998C19.0505 22.6802 19.5661 21.438 20.5021 20.5019Z" fill="white"/>
</g>
<defs>
<clipPath id="clip0_17_198">
<rect width="26" height="26" fill="white" transform="translate(11 11)"/>
</clipPath>
</defs>
</svg>
