<svg width="29" height="26" viewBox="0 0 29 26" fill="none" xmlns="http://www.w3.org/2000/svg">
<path d="M17.5208 21.9766V8.45833H11.4792V21.9766C11.4792 22.2912 11.5924 22.5335 11.819 22.7035C12.0456 22.8734 12.3351 22.9583 12.6875 22.9583H16.3125C16.6649 22.9583 16.9544 22.8734 17.181 22.7035C17.4076 22.5335 17.5208 22.2912 17.5208 21.9766ZM8.91146 6.04167H12.5931L10.2142 3.00195C9.88694 2.61176 9.45269 2.41667 8.91146 2.41667C8.40799 2.41667 7.98003 2.59288 7.6276 2.94531C7.27517 3.29774 7.09896 3.72569 7.09896 4.22917C7.09896 4.73264 7.27517 5.16059 7.6276 5.51302C7.98003 5.86545 8.40799 6.04167 8.91146 6.04167ZM21.901 4.22917C21.901 3.72569 21.7248 3.29774 21.3724 2.94531C21.02 2.59288 20.592 2.41667 20.0885 2.41667C19.5473 2.41667 19.1131 2.61176 18.7858 3.00195L16.4258 6.04167H20.0885C20.592 6.04167 21.02 5.86545 21.3724 5.51302C21.7248 5.16059 21.901 4.73264 21.901 4.22917ZM29 9.0625V15.1042C29 15.2804 28.9434 15.4251 28.8301 15.5384C28.7168 15.6517 28.5721 15.7083 28.3958 15.7083H26.5833V23.5625C26.5833 24.066 26.4071 24.4939 26.0547 24.8464C25.7023 25.1988 25.2743 25.375 24.7708 25.375H4.22917C3.72569 25.375 3.29774 25.1988 2.94531 24.8464C2.59288 24.4939 2.41667 24.066 2.41667 23.5625V15.7083H0.604167C0.427951 15.7083 0.283203 15.6517 0.169922 15.5384C0.0566406 15.4251 0 15.2804 0 15.1042V9.0625C0 8.88628 0.0566406 8.74154 0.169922 8.62826C0.283203 8.51497 0.427951 8.45833 0.604167 8.45833H8.91146C7.74089 8.45833 6.74338 8.04612 5.91895 7.22168C5.09451 6.39724 4.68229 5.39974 4.68229 4.22917C4.68229 3.05859 5.09451 2.06109 5.91895 1.23665C6.74338 0.412218 7.74089 0 8.91146 0C10.2582 0 11.3155 0.484592 12.0833 1.45378L14.5 4.56901L16.9167 1.45378C17.6845 0.484592 18.7418 0 20.0885 0C21.2591 0 22.2566 0.412218 23.0811 1.23665C23.9055 2.06109 24.3177 3.05859 24.3177 4.22917C24.3177 5.39974 23.9055 6.39724 23.0811 7.22168C22.2566 8.04612 21.2591 8.45833 20.0885 8.45833H28.3958C28.5721 8.45833 28.7168 8.51497 28.8301 8.62826C28.9434 8.74154 29 8.88628 29 9.0625Z" fill="white"/>
</svg>
