<svg width="19" height="19" viewBox="0 0 19 19" fill="none" xmlns="http://www.w3.org/2000/svg">
<path d="M16.5 0.5H2.5C1.4 0.5 0.5 1.4 0.5 2.5V16.5C0.5 17.601 1.4 18.5 2.5 18.5H16.5C17.6 18.5 18.5 17.601 18.5 16.5V2.5C18.5 1.4 17.6 0.5 16.5 0.5ZM9.484 15.023C10.9529 15.0227 12.3615 14.439 13.4 13.4003C14.4386 12.3616 15.022 10.9529 15.022 9.484C15.022 9.146 14.979 8.82 14.919 8.5H16.5V15.716C16.5 15.8069 16.4821 15.8968 16.4472 15.9807C16.4123 16.0647 16.3612 16.1409 16.2968 16.205C16.2325 16.2691 16.156 16.3198 16.072 16.3543C15.9879 16.3888 15.8979 16.4064 15.807 16.406H3.193C3.10214 16.4064 3.01209 16.3888 2.92803 16.3543C2.84397 16.3198 2.76755 16.2691 2.70316 16.205C2.63877 16.1409 2.58767 16.0647 2.55281 15.9807C2.51795 15.8968 2.5 15.8069 2.5 15.716V8.5H4.049C3.988 8.82 3.945 9.146 3.945 9.484C3.94527 10.953 4.52892 12.3617 5.56763 13.4004C6.60633 14.4391 8.01505 15.0227 9.484 15.023ZM6.023 9.484C6.023 9.0295 6.11252 8.57944 6.28645 8.15953C6.46038 7.73962 6.71532 7.35809 7.0367 7.0367C7.35809 6.71532 7.73962 6.46038 8.15953 6.28645C8.57944 6.11252 9.0295 6.023 9.484 6.023C9.93851 6.023 10.3886 6.11252 10.8085 6.28645C11.2284 6.46038 11.6099 6.71532 11.9313 7.0367C12.2527 7.35809 12.5076 7.73962 12.6815 8.15953C12.8555 8.57944 12.945 9.0295 12.945 9.484C12.945 10.4019 12.5804 11.2822 11.9313 11.9313C11.2822 12.5804 10.4019 12.945 9.484 12.945C8.56609 12.945 7.68577 12.5804 7.0367 11.9313C6.38764 11.2822 6.023 10.4019 6.023 9.484ZM15.807 5.5H14.192C14.0086 5.49947 13.8329 5.4264 13.7033 5.29673C13.5736 5.16707 13.5005 4.99137 13.5 4.808V3.191C13.5 2.809 13.81 2.5 14.191 2.5H15.806C16.19 2.5 16.5 2.809 16.5 3.191V4.807C16.5 5.188 16.19 5.5 15.807 5.5Z" fill="white"/>
</svg>
