<svg width="23" height="21" viewBox="0 0 23 21" fill="none" xmlns="http://www.w3.org/2000/svg">
<path d="M10.0742 2.07783C8.95074 1.18959 7.53736 0.750406 6.10836 0.845524C4.67936 0.940642 3.33666 1.56327 2.34085 2.59258C0.0450173 4.94641 0.0546837 8.77441 2.36018 11.1379L10.8959 19.8935C11.2487 20.256 11.8239 20.256 12.1767 19.8935L20.6664 11.1887C21.7682 10.0381 22.3813 8.50534 22.3768 6.91233C22.3723 5.31931 21.7506 3.79003 20.6423 2.64574C20.1036 2.08402 19.4572 1.63665 18.7417 1.33038C18.0263 1.0241 17.2564 0.865197 16.4781 0.863167C15.6999 0.861137 14.9292 1.01602 14.2121 1.31856C13.4951 1.6211 12.8464 2.06509 12.3048 2.62399L11.4928 3.45774L10.6711 2.61191C10.4849 2.42178 10.2863 2.24417 10.0766 2.08024M14.0351 4.31324C14.3515 3.98522 14.7312 3.72472 15.1511 3.54747C15.5709 3.37021 16.0224 3.27987 16.4782 3.2819C16.9339 3.28394 17.3846 3.3783 17.8029 3.55929C18.2212 3.74029 18.5984 4.00416 18.9119 4.33499C20.3064 5.76566 20.3064 8.08808 18.9337 9.50666L18.9313 9.50908L11.5363 17.0926L4.09293 9.45591C3.42315 8.76238 3.04721 7.8369 3.0436 6.87275C3.04 5.9086 3.40902 4.98034 4.0736 4.28183C4.38955 3.9547 4.76846 3.69493 5.18751 3.51818C5.60655 3.34142 6.05704 3.25135 6.51183 3.25338C6.96662 3.25541 7.41629 3.34951 7.83373 3.53C8.25118 3.71049 8.62775 3.97364 8.94077 4.30358L9.76243 5.14699C9.98762 5.37828 10.2569 5.56211 10.5542 5.68763C10.8516 5.81315 11.1712 5.87782 11.494 5.87782C11.8168 5.87782 12.1363 5.81315 12.4337 5.68763C12.7311 5.56211 13.0003 5.37828 13.2255 5.14699L14.0351 4.31324Z" fill="white"/>
</svg>
