<svg width="16" height="21" viewBox="0 0 16 21" fill="none" xmlns="http://www.w3.org/2000/svg">
<g clip-path="url(#clip0_144_1383)">
<path fill-rule="evenodd" clip-rule="evenodd" d="M7.56215 19.8143C7.95734 19.8143 15.0186 12.2697 15.0186 8.15163C15.0186 4.03355 11.6802 0.69519 7.56215 0.69519C3.44407 0.69519 0.105713 4.03355 0.105713 8.15163C0.105713 12.2697 7.16697 19.8143 7.56215 19.8143ZM7.56216 11.8811C9.65003 11.8811 11.3426 10.1885 11.3426 8.10064C11.3426 6.01277 9.65003 4.32022 7.56216 4.32022C5.4743 4.32022 3.78175 6.01277 3.78175 8.10064C3.78175 10.1885 5.4743 11.8811 7.56216 11.8811Z" fill="white"/>
<path fill-rule="evenodd" clip-rule="evenodd" d="M0.105713 8.15163C0.105713 12.2697 7.16697 19.8143 7.56215 19.8143V11.8811C5.47429 11.881 3.78175 10.1885 3.78175 8.10064C3.78175 6.01278 5.47429 4.32023 7.56215 4.32022V0.69519C3.44407 0.69519 0.105713 4.03355 0.105713 8.15163Z" fill="white"/>
</g>
<defs>
<clipPath id="clip0_144_1383">
<rect width="16" height="20" fill="white" transform="translate(0 0.5)"/>
</clipPath>
</defs>
</svg>
