<svg width="29" height="23" viewBox="0 0 29 23" fill="none" xmlns="http://www.w3.org/2000/svg">
<path d="M15.9138 0.215465C16.0588 0.125621 16.2128 0.0672228 16.3669 0.0312853C16.5798 -0.0136366 16.8019 -0.00914443 17.0058 0.0357774C17.3547 0.116637 17.6764 0.32777 17.8848 0.646715L23.3178 8.72367C23.7166 9.31214 23.925 10.0084 23.925 10.7182V14.02C23.925 14.3299 24.1244 14.6039 24.4189 14.7028L28.0077 15.8887C28.6012 16.0819 29 16.6299 29 17.2498V21.5623C29 22.0071 28.7916 22.4293 28.4336 22.7034C28.0756 22.9774 27.6134 23.0672 27.1784 22.9504L19.5297 20.9289C16.9922 20.2596 15.225 17.9776 15.225 15.3721V10.0623C15.225 9.26722 15.873 8.62484 16.675 8.62484C17.477 8.62484 18.125 9.26722 18.125 10.0623V13.6561C18.125 14.0514 18.4513 14.3748 18.85 14.3748C19.2488 14.3748 19.575 14.0514 19.575 13.6561V9.84222C19.575 9.52777 19.4934 9.2223 19.3348 8.95277L15.4198 2.16058C15.3428 2.02582 15.2884 1.88656 15.2567 1.74281C15.2114 1.53168 15.2114 1.31156 15.2612 1.10941C15.3473 0.750035 15.5694 0.426598 15.9092 0.215465H15.9138ZM13.0863 0.215465C13.4261 0.422106 13.6481 0.750035 13.7342 1.10941C13.7841 1.31605 13.7886 1.53168 13.7388 1.74281C13.707 1.88656 13.6527 2.02582 13.5756 2.16058L9.66516 8.95277C9.50656 9.2223 9.425 9.53226 9.425 9.84222V13.6561C9.425 14.0514 9.75125 14.3748 10.15 14.3748C10.5487 14.3748 10.875 14.0514 10.875 13.6561V10.0623C10.875 9.26722 11.523 8.62484 12.325 8.62484C13.127 8.62484 13.775 9.26722 13.775 10.0623V15.3766C13.775 17.9821 12.0078 20.2596 9.47031 20.9334L1.82609 22.9549C1.39109 23.0717 0.924375 22.9774 0.570938 22.7078C0.2175 22.4383 0 22.0116 0 21.5623V17.2498C0 16.6299 0.39875 16.0819 0.992344 15.8842L4.58109 14.6983C4.87563 14.5994 5.075 14.3254 5.075 14.0155V10.7137C5.075 10.0039 5.28797 9.31215 5.68219 8.71918L11.1106 0.651207C11.3191 0.332262 11.6408 0.121129 11.9897 0.0402696C12.1981 -0.00914443 12.4156 -0.0136366 12.6286 0.0357774C12.7872 0.071715 12.9413 0.130113 13.0817 0.219957L13.0863 0.215465Z" fill="white"/>
</svg>
